<?xml version="1.0" encoding="UTF-8" standalone="no"?>
<svg
   xmlns:dc="http://purl.org/dc/elements/1.1/"
   xmlns:cc="http://creativecommons.org/ns#"
   xmlns:rdf="http://www.w3.org/1999/02/22-rdf-syntax-ns#"
   xmlns:svg="http://www.w3.org/2000/svg"
   xmlns="http://www.w3.org/2000/svg"
   width="16"
   height="16">
  <g>
    <path class="cls-1" d="M415,307s-21,13-24,22-117.23,44.43-123,47-32,8-40,68v82H731.5V437.8s-2.09-45.32-28-58.83L575.31,328.54s-19.61-23.11-28.72-26.61L545.9,280s19.78-35.49,19.17-43.59a7.65,7.65,0,0,0,.92,2c5.54,4.59,13.54-19.3,14.52-24.42S587.82,181,587.82,181s0.76-7.37-1.73-9.92c-2-2.42-6.5-2.84-9.49,0-2.16,3,7.77-18.12,6-44s-11.22-53.94-37.11-74.22S471.31,32.51,461,32.51s4.75-3,27.19-2.59-50.06-5.18-54.8,4.32a35,35,0,0,1,6.47-5.57c3-1.76-26.75,11.18-24.6,23.26,0,0-20.71.86-29.77,13.38a9.31,9.31,0,0,1,6.9-1.29s-13.81,13.38-12.51,22.44c0,0,2.16-3.88,5.18-4.32,0,0-16.83,32.36,2.16,86.73,0,0-11.22-2.16-10.79,7.77,0,0,3.28,19,5.61,28s10.11,29.75,10.11,29.75,4.2,7.75,10.65,3.23c0,0-.32,15.28,13.88,39.59Z" transform="translate(-228 -28.5)"/>
  </g>
</svg>